<svg width="1118" height="1109" viewBox="0 0 1118 1109" fill="none" xmlns="http://www.w3.org/2000/svg">
<g filter="url(#filter0_d_1368_95)">
<path d="M1086.57 25.5025C1088.57 25.4282 1090.28 26.9899 1090.51 28.9977L1091.18 35.7643H1091.1C1094.6 70.4903 1091.18 103.952 1084.86 137.637C1078.16 171.099 1067.6 204.041 1053.25 235.496C1024.85 298.553 981.719 355.661 929.518 401.913C923.049 407.787 916.506 413.513 909.665 418.941L899.477 427.121L889.513 434.631C876.128 444.596 863.115 454.932 849.284 464.376L828.686 478.727C821.771 483.486 814.631 487.948 807.567 492.558C793.588 502.002 779.014 510.479 764.439 519.03C705.992 553.235 643.381 580.377 582.629 603.949L492.281 639.122C462.463 650.871 432.867 662.768 403.347 675.038C388.549 681.061 374.048 687.678 359.251 693.85L348.246 698.535L328.615 707.755L319.022 712.961C293.442 726.792 269.201 743.598 246.521 763.005C201.013 801.673 162.346 850.379 129.107 903.323C96.2402 956.416 68.1318 1014.42 46.4188 1074.2L44.0399 1080.82C43.3707 1082.68 41.4368 1083.72 39.5779 1083.35L28.6473 1081.12C26.6396 1080.75 25.3012 1078.89 25.5242 1076.8L26.2674 1070.04C29.7623 1036.43 36.8265 1004.15 45.824 971.957C54.5985 939.759 66.1988 908.156 79.7322 877.222C107.245 815.727 143.831 756.387 193.206 706.194C217.819 681.135 245.406 658.381 275.819 639.27L287.27 632.206L299.095 625.737L310.992 619.267L322.071 613.764C336.869 606.477 351.593 598.967 366.539 592.126C426.101 563.869 487.374 538.587 547.159 514.717C577.126 502.671 606.201 490.476 634.904 477.835C663.533 465.193 691.195 451.362 718.708 436.862C732.316 429.277 745.998 421.99 759.457 413.96C766.224 410.019 772.99 406.152 779.682 402.062L799.685 389.569C813.145 381.464 826.307 372.615 839.543 364.064L849.507 357.594L858.727 351.126L868.022 344.73L877.02 338.038C925.131 302.047 967.367 258.101 1000.61 206.941C1017.34 181.436 1031.61 153.996 1043.59 125.368C1049.61 111.016 1054.89 96.2936 1059.35 81.2731C1064.04 66.4011 1067.83 50.7103 1070.5 35.9127L1071.77 28.775C1072.14 26.916 1073.7 25.5769 1075.64 25.5025H1086.57ZM954.3 846.507C955.787 845.392 957.944 845.467 959.356 846.805L965.453 852.457C966.94 853.795 967.164 856.026 965.974 857.662L962.776 862.124H962.851C927.828 910.606 883.881 950.983 834.804 985.338C785.726 1019.32 730.104 1046.54 670.542 1060.89C641.393 1068.17 612.02 1073.16 582.574 1076.87C553.128 1080.22 523.606 1082.38 494.234 1082.82C435.341 1083.49 376.82 1079.7 318.968 1067.51L313.54 1066.39C311.607 1066.02 310.268 1064.16 310.417 1062.23L311.086 1053.82C311.234 1051.89 312.796 1050.4 314.655 1050.18L320.306 1049.73C377.564 1044.9 434.597 1039.77 490.739 1032.78C518.847 1029.43 546.658 1025.05 574.32 1020.51C601.908 1015.45 629.272 1010.17 656.042 1003.33C708.614 990.32 759.105 968.755 808.034 942.134C856.74 915.439 904.181 884.059 949.689 850.003L954.3 846.507ZM1072.62 416.996C1073.58 415.509 1075.37 414.764 1077.08 415.285L1084.74 417.59C1086.52 418.111 1087.71 419.896 1087.56 421.755L1086.97 427.926H1087.12C1083.92 459.529 1075.07 488.902 1063.62 517.754C1052.02 546.456 1037.37 574.118 1020.04 600.07C1002.57 625.947 982.64 650.486 960.109 672.571C948.881 683.651 937.057 694.135 924.788 704.099C912.519 713.989 899.952 722.987 887.088 731.91C835.408 766.784 778.522 793.48 719.332 810.657C689.737 819.283 659.62 825.529 629.207 829.247C614.038 831.106 598.72 832.37 583.476 832.668C568.084 833.114 553.063 832.891 537.299 831.106L531.275 830.437C529.342 830.214 527.855 828.652 527.78 826.719L527.409 818.168C527.335 816.309 528.524 814.672 530.308 814.152L536.406 812.516C564.217 805.155 592.25 796.306 619.243 786.713C646.384 777.121 672.856 766.264 698.733 754.664C750.413 731.166 799.492 703.578 844.926 671.306C867.754 655.096 889.244 637.919 909.693 619.552C919.88 610.257 929.77 600.665 939.586 590.923C949.178 580.959 958.846 570.921 967.992 560.436C1005.02 518.795 1038.63 472.171 1069.12 422.647L1072.62 416.996Z" fill="url(#paint0_linear_1368_95)"/>
</g>
<defs>
<filter id="filter0_d_1368_95" x="0" y="0" width="1118" height="1108.92" filterUnits="userSpaceOnUse" color-interpolation-filters="sRGB">
<feFlood flood-opacity="0" result="BackgroundImageFix"/>
<feColorMatrix in="SourceAlpha" type="matrix" values="0 0 0 0 0 0 0 0 0 0 0 0 0 0 0 0 0 0 127 0" result="hardAlpha"/>
<feOffset/>
<feGaussianBlur stdDeviation="12.75"/>
<feComposite in2="hardAlpha" operator="out"/>
<feColorMatrix type="matrix" values="0 0 0 0 1 0 0 0 0 1 0 0 0 0 1 0 0 0 0.44 0"/>
<feBlend mode="normal" in2="BackgroundImageFix" result="effect1_dropShadow_1368_95"/>
<feBlend mode="normal" in="SourceGraphic" in2="effect1_dropShadow_1368_95" result="shape"/>
</filter>
<linearGradient id="paint0_linear_1368_95" x1="25.4998" y1="995.261" x2="1183.5" y2="425.256" gradientUnits="userSpaceOnUse">
<stop stop-color="#FFDB6B"/>
<stop offset="1" stop-color="#FCC926"/>
</linearGradient>
</defs>
</svg>
